<svg xmlns="http://www.w3.org/2000/svg" width="1200" height="420" viewBox="0 0 1200 420">
  <defs>
    <linearGradient id="bg" x1="0" y1="0" x2="1" y2="1">
      <stop offset="0" stop-color="#133a55"/>
      <stop offset="0.55" stop-color="#0b2240"/>
      <stop offset="1" stop-color="#07142a"/>
    </linearGradient>
    <radialGradient id="g1" cx="0" cy="0" r="1" gradientUnits="userSpaceOnUse" gradientTransform="translate(320 120) rotate(90) scale(240)">
      <stop offset="0" stop-color="#5eead4" stop-opacity="0.70"/>
      <stop offset="0.7" stop-color="#5eead4" stop-opacity="0.12"/>
      <stop offset="1" stop-color="#5eead4" stop-opacity="0"/>
    </radialGradient>
    <radialGradient id="g2" cx="0" cy="0" r="1" gradientUnits="userSpaceOnUse" gradientTransform="translate(860 260) rotate(90) scale(280)">
      <stop offset="0" stop-color="#60a5fa" stop-opacity="0.55"/>
      <stop offset="0.7" stop-color="#60a5fa" stop-opacity="0.10"/>
      <stop offset="1" stop-color="#60a5fa" stop-opacity="0"/>
    </radialGradient>
    <linearGradient id="card" x1="0" y1="0" x2="1" y2="1">
      <stop offset="0" stop-color="#ffffff" stop-opacity="0.18"/>
      <stop offset="1" stop-color="#ffffff" stop-opacity="0.06"/>
    </linearGradient>
  </defs>

  <rect width="1200" height="420" fill="url(#bg)"/>
  <rect width="1200" height="420" fill="url(#g1)"/>
  <rect width="1200" height="420" fill="url(#g2)"/>

  <g transform="translate(160 96)">
    <rect x="0" y="0" width="420" height="240" rx="28" fill="url(#card)" stroke="#ffffff" stroke-opacity="0.12"/>
    <rect x="46" y="54" width="156" height="96" rx="18" fill="#ffffff" fill-opacity="0.18"/>
    <rect x="226" y="70" width="148" height="40" rx="20" fill="#ffffff" fill-opacity="0.16"/>
    <rect x="226" y="126" width="108" height="34" rx="17" fill="#ffffff" fill-opacity="0.12"/>
    <path d="M68 104h112" stroke="#0b2240" stroke-opacity="0.55" stroke-width="8" stroke-linecap="round"/>
    <path d="M86 86h76" stroke="#0b2240" stroke-opacity="0.55" stroke-width="8" stroke-linecap="round"/>
  </g>

  <g transform="translate(720 120)">
    <rect x="0" y="0" width="320" height="200" rx="28" fill="url(#card)" stroke="#ffffff" stroke-opacity="0.12"/>
    <circle cx="92" cy="100" r="56" fill="#ffffff" fill-opacity="0.14"/>
    <path d="M70 100h44" stroke="#07142a" stroke-opacity="0.6" stroke-width="10" stroke-linecap="round"/>
    <path d="M92 78v44" stroke="#07142a" stroke-opacity="0.6" stroke-width="10" stroke-linecap="round"/>
    <rect x="172" y="70" width="118" height="44" rx="22" fill="#ffffff" fill-opacity="0.14"/>
    <rect x="172" y="126" width="86" height="36" rx="18" fill="#ffffff" fill-opacity="0.10"/>
  </g>

  <g opacity="0.18">
    <path d="M0 90H1200" stroke="#ffffff" stroke-opacity="0.12"/>
    <path d="M0 180H1200" stroke="#ffffff" stroke-opacity="0.08"/>
    <path d="M0 270H1200" stroke="#ffffff" stroke-opacity="0.06"/>
    <path d="M0 360H1200" stroke="#ffffff" stroke-opacity="0.05"/>
  </g>
</svg>

