<svg xmlns="http://www.w3.org/2000/svg" width="1600" height="900" viewBox="0 0 1600 900">
  <defs>
    <linearGradient id="bg" x1="0" y1="0" x2="1" y2="1">
      <stop offset="0" stop-color="#07102b"/>
      <stop offset="0.55" stop-color="#06122a"/>
      <stop offset="1" stop-color="#030818"/>
    </linearGradient>
    <radialGradient id="glowA" cx="0" cy="0" r="1" gradientUnits="userSpaceOnUse" gradientTransform="translate(1200 220) rotate(90) scale(520)">
      <stop offset="0" stop-color="#00ffff" stop-opacity="0.55"/>
      <stop offset="0.6" stop-color="#00ffff" stop-opacity="0.12"/>
      <stop offset="1" stop-color="#00ffff" stop-opacity="0"/>
    </radialGradient>
    <radialGradient id="glowB" cx="0" cy="0" r="1" gradientUnits="userSpaceOnUse" gradientTransform="translate(420 610) rotate(90) scale(620)">
      <stop offset="0" stop-color="#6366f1" stop-opacity="0.35"/>
      <stop offset="0.65" stop-color="#6366f1" stop-opacity="0.10"/>
      <stop offset="1" stop-color="#6366f1" stop-opacity="0"/>
    </radialGradient>
    <linearGradient id="sheen" x1="0" y1="0" x2="1" y2="0">
      <stop offset="0" stop-color="#ffffff" stop-opacity="0"/>
      <stop offset="0.45" stop-color="#ffffff" stop-opacity="0.06"/>
      <stop offset="0.6" stop-color="#ffffff" stop-opacity="0"/>
    </linearGradient>
  </defs>

  <rect width="1600" height="900" fill="url(#bg)"/>
  <rect width="1600" height="900" fill="url(#glowA)"/>
  <rect width="1600" height="900" fill="url(#glowB)"/>

  <g opacity="0.20">
    <path d="M0 130H1600" stroke="#ffffff" stroke-opacity="0.16"/>
    <path d="M0 260H1600" stroke="#ffffff" stroke-opacity="0.10"/>
    <path d="M0 390H1600" stroke="#ffffff" stroke-opacity="0.08"/>
    <path d="M0 520H1600" stroke="#ffffff" stroke-opacity="0.06"/>
    <path d="M0 650H1600" stroke="#ffffff" stroke-opacity="0.05"/>
    <path d="M0 780H1600" stroke="#ffffff" stroke-opacity="0.04"/>
  </g>

  <g opacity="0.22">
    <path d="M240 0V900" stroke="#ffffff" stroke-opacity="0.05"/>
    <path d="M520 0V900" stroke="#ffffff" stroke-opacity="0.05"/>
    <path d="M800 0V900" stroke="#ffffff" stroke-opacity="0.06"/>
    <path d="M1080 0V900" stroke="#ffffff" stroke-opacity="0.05"/>
    <path d="M1360 0V900" stroke="#ffffff" stroke-opacity="0.05"/>
  </g>

  <rect x="-120" y="120" width="900" height="120" rx="60" fill="url(#sheen)" opacity="0.85"/>
  <rect x="520" y="520" width="980" height="140" rx="70" fill="url(#sheen)" opacity="0.55"/>
</svg>

