<svg width="66" height="59" viewBox="0 0 66 59" fill="none" xmlns="http://www.w3.org/2000/svg">
<path d="M52.1345 26.8522C55.8158 26.4216 58.5221 23.0417 57.2722 19.5523C55.5579 14.7667 52.6219 10.4674 48.7059 7.10845C43.0771 2.28052 35.8366 -0.250419 28.4259 0.0195742C21.0152 0.289567 13.978 3.34069 8.71554 8.56542C3.45307 13.7901 0.351377 20.8052 0.028053 28.2138C-0.295271 35.6223 2.18349 42.8809 6.97079 48.5442C11.7581 54.2075 18.5027 57.8601 25.8617 58.7747C33.2207 59.6893 40.6542 57.7987 46.6821 53.4795C50.8759 50.4745 54.1753 46.4474 56.2999 41.8292C57.8491 38.4621 55.4476 34.8592 51.8178 34.1095C48.1879 33.3598 44.7319 35.8418 42.575 38.8561C41.5585 40.2767 40.3088 41.5341 38.8644 42.5691C35.5791 44.9231 31.5278 45.9534 27.5171 45.455C23.5063 44.9565 19.8304 42.9658 17.2213 39.8793C14.6122 36.7927 13.2612 32.8367 13.4375 28.799C13.6137 24.7612 15.3041 20.938 18.1722 18.0904C21.0403 15.2429 24.8757 13.58 28.9146 13.4328C32.9535 13.2857 36.8997 14.6651 39.9674 17.2964C41.3161 18.4532 42.4515 19.8147 43.3404 21.3185C45.2265 24.5092 48.4531 27.2829 52.1345 26.8522Z" fill="#00CCFF"/>
<path d="M29.8746 38.0224C27.1589 34.566 29.6212 29.5 34.0168 29.5H58.9998C68.2862 29.5 65.2242 42.5473 60.3344 48.7829C58.291 51.3887 55.5134 49.3428 55.5134 46.0314C55.5134 42.7201 52.829 40.0357 49.5176 40.0357H34.0168C32.4003 40.0357 30.8733 39.2935 29.8746 38.0224Z" fill="#66E0FF"/>
</svg>
